{
    "asset" : {
        "generator" : "Khronos glTF Blender I/O v1.5.17",
        "version" : "2.0"
    },
    "scene" : 0,
    "scenes" : [
        {
            "extras" : {
                "glTF2ExportSettings" : {
                    "export_animations" : 1,
                    "export_cameras" : 0,
                    "export_colors" : 1,
                    "export_extras" : 1,
                    "export_force_sampling" : 0,
                    "export_format" : "GLTF_EMBEDDED",
                    "export_image_format" : "AUTO",
                    "export_lights" : 0,
                    "export_morph" : 1,
                    "export_normals" : 1,
                    "export_skins" : 1,
                    "export_texcoords" : 1,
                    "export_yup" : 1,
                    "use_selection" : 1
                }
            },
            "name" : "Scene",
            "nodes" : [
                0
            ]
        }
    ],
    "nodes" : [
        {
            "extras" : {
                "sparkar_optimization" : {
                    "InvertedReducePercentage" : 0
                },
                "spark_blender_addon" : 1
            },
            "mesh" : 0,
            "name" : "path2"
        }
    ],
    "materials" : [
        {
            "doubleSided" : true,
            "name" : "SVGMat.003",
            "pbrMetallicRoughness" : {
                "baseColorFactor" : [
                    0.20863686501979828,
                    0.24228112399578094,
                    0.2961382567882538,
                    1
                ],
                "metallicFactor" : 0,
                "roughnessFactor" : 0.4000000059604645
            }
        },
        {
            "doubleSided" : true,
            "name" : "SVGMat.001",
            "pbrMetallicRoughness" : {
                "baseColorFactor" : [
                    0.03560131415724754,
                    0.061246052384376526,
                    0.11953842639923096,
                    1
                ],
                "metallicFactor" : 0,
                "roughnessFactor" : 0.4000000059604645
            }
        },
        {
            "doubleSided" : true,
            "name" : "SVGMat.002",
            "pbrMetallicRoughness" : {
                "baseColorFactor" : [
                    0.6444796919822693,
                    0.68668532371521,
                    0.7379103899002075,
                    1
                ],
                "metallicFactor" : 0,
                "roughnessFactor" : 0.4000000059604645
            }
        },
        {
            "doubleSided" : true,
            "name" : "SVGMat.004",
            "pbrMetallicRoughness" : {
                "baseColorFactor" : [
                    0.2961382567882538,
                    0.37123769521713257,
                    0.44520118832588196,
                    1
                ],
                "metallicFactor" : 0,
                "roughnessFactor" : 0.4000000059604645
            }
        },
        {
            "doubleSided" : true,
            "name" : "SVGMat.005",
            "pbrMetallicRoughness" : {
                "baseColorFactor" : [
                    0.10461648553609848,
                    0.13013647496700287,
                    0.177888423204422,
                    1
                ],
                "metallicFactor" : 0,
                "roughnessFactor" : 0.4000000059604645
            }
        }
    ],
    "meshes" : [
        {
            "name" : "path2",
            "primitives" : [
                {
                    "attributes" : {
                        "POSITION" : 0,
                        "NORMAL" : 1,
                        "TEXCOORD_0" : 2
                    },
                    "indices" : 3,
                    "material" : 0
                },
                {
                    "attributes" : {
                        "POSITION" : 4,
                        "NORMAL" : 5,
                        "TEXCOORD_0" : 6
                    },
                    "indices" : 7,
                    "material" : 1
                },
                {
                    "attributes" : {
                        "POSITION" : 8,
                        "NORMAL" : 9,
                        "TEXCOORD_0" : 10
                    },
                    "indices" : 11,
                    "material" : 2
                },
                {
                    "attributes" : {
                        "POSITION" : 12,
                        "NORMAL" : 13,
                        "TEXCOORD_0" : 14
                    },
                    "indices" : 15,
                    "material" : 3
                },
                {
                    "attributes" : {
                        "POSITION" : 16,
                        "NORMAL" : 17,
                        "TEXCOORD_0" : 18
                    },
                    "indices" : 19,
                    "material" : 4
                }
            ]
        }
    ],
    "accessors" : [
        {
            "bufferView" : 0,
            "componentType" : 5126,
            "count" : 9630,
            "max" : [
                0.04702796787023544,
                0.00979253463447094,
                0.04406997188925743
            ],
            "min" : [
                -0.04639539122581482,
                0.00019308459013700485,
                -0.04380945488810539
            ],
            "type" : "VEC3"
        },
        {
            "bufferView" : 1,
            "componentType" : 5126,
            "count" : 9630,
            "type" : "VEC3"
        },
        {
            "bufferView" : 2,
            "componentType" : 5126,
            "count" : 9630,
            "type" : "VEC2"
        },
        {
            "bufferView" : 3,
            "componentType" : 5123,
            "count" : 9630,
            "type" : "SCALAR"
        },
        {
            "bufferView" : 4,
            "componentType" : 5126,
            "count" : 13989,
            "max" : [
                0.047060154378414154,
                0.009460721164941788,
                0.04402713477611542
            ],
            "min" : [
                -0.04703748971223831,
                0.0003046579658985138,
                -0.04388448968529701
            ],
            "type" : "VEC3"
        },
        {
            "bufferView" : 5,
            "componentType" : 5126,
            "count" : 13989,
            "type" : "VEC3"
        },
        {
            "bufferView" : 6,
            "componentType" : 5126,
            "count" : 13989,
            "type" : "VEC2"
        },
        {
            "bufferView" : 7,
            "componentType" : 5123,
            "count" : 14136,
            "type" : "SCALAR"
        },
        {
            "bufferView" : 8,
            "componentType" : 5126,
            "count" : 21132,
            "max" : [
                0.04702385514974594,
                0.009460764937102795,
                0.04405290260910988
            ],
            "min" : [
                -0.047050170600414276,
                0.00030444469302892685,
                -0.04406997188925743
            ],
            "type" : "VEC3"
        },
        {
            "bufferView" : 9,
            "componentType" : 5126,
            "count" : 21132,
            "type" : "VEC3"
        },
        {
            "bufferView" : 10,
            "componentType" : 5126,
            "count" : 21132,
            "type" : "VEC2"
        },
        {
            "bufferView" : 11,
            "componentType" : 5123,
            "count" : 21276,
            "type" : "SCALAR"
        },
        {
            "bufferView" : 12,
            "componentType" : 5126,
            "count" : 12594,
            "max" : [
                0.04687444865703583,
                0.009889352135360241,
                0.04405037686228752
            ],
            "min" : [
                -0.047060154378414154,
                0,
                -0.04391277953982353
            ],
            "type" : "VEC3"
        },
        {
            "bufferView" : 13,
            "componentType" : 5126,
            "count" : 12594,
            "type" : "VEC3"
        },
        {
            "bufferView" : 14,
            "componentType" : 5126,
            "count" : 12594,
            "type" : "VEC2"
        },
        {
            "bufferView" : 15,
            "componentType" : 5123,
            "count" : 12594,
            "type" : "SCALAR"
        },
        {
            "bufferView" : 16,
            "componentType" : 5126,
            "count" : 16766,
            "max" : [
                0.04704686999320984,
                0.010000000707805157,
                0.04405204951763153
            ],
            "min" : [
                -0.046839527785778046,
                7.501058280467987e-05,
                -0.04391906037926674
            ],
            "type" : "VEC3"
        },
        {
            "bufferView" : 17,
            "componentType" : 5126,
            "count" : 16766,
            "type" : "VEC3"
        },
        {
            "bufferView" : 18,
            "componentType" : 5126,
            "count" : 16766,
            "type" : "VEC2"
        },
        {
            "bufferView" : 19,
            "componentType" : 5123,
            "count" : 16770,
            "type" : "SCALAR"
        }
    ],
    "bufferViews" : [
        {
            "buffer" : 0,
            "byteLength" : 115560,
            "byteOffset" : 0
        },
        {
            "buffer" : 0,
            "byteLength" : 115560,
            "byteOffset" : 115560
        },
        {
            "buffer" : 0,
            "byteLength" : 77040,
            "byteOffset" : 231120
        },
        {
            "buffer" : 0,
            "byteLength" : 19260,
            "byteOffset" : 308160
        },
        {
            "buffer" : 0,
            "byteLength" : 167868,
            "byteOffset" : 327420
        },
        {
            "buffer" : 0,
            "byteLength" : 167868,
            "byteOffset" : 495288
        },
        {
            "buffer" : 0,
            "byteLength" : 111912,
            "byteOffset" : 663156
        },
        {
            "buffer" : 0,
            "byteLength" : 28272,
            "byteOffset" : 775068
        },
        {
            "buffer" : 0,
            "byteLength" : 253584,
            "byteOffset" : 803340
        },
        {
            "buffer" : 0,
            "byteLength" : 253584,
            "byteOffset" : 1056924
        },
        {
            "buffer" : 0,
            "byteLength" : 169056,
            "byteOffset" : 1310508
        },
        {
            "buffer" : 0,
            "byteLength" : 42552,
            "byteOffset" : 1479564
        },
        {
            "buffer" : 0,
            "byteLength" : 151128,
            "byteOffset" : 1522116
        },
        {
            "buffer" : 0,
            "byteLength" : 151128,
            "byteOffset" : 1673244
        },
        {
            "buffer" : 0,
            "byteLength" : 100752,
            "byteOffset" : 1824372
        },
        {
            "buffer" : 0,
            "byteLength" : 25188,
            "byteOffset" : 1925124
        },
        {
            "buffer" : 0,
            "byteLength" : 201192,
            "byteOffset" : 1950312
        },
        {
            "buffer" : 0,
            "byteLength" : 201192,
            "byteOffset" : 2151504
        },
        {
            "buffer" : 0,
            "byteLength" : 134128,
            "byteOffset" : 2352696
        },
        {
            "buffer" : 0,
            "byteLength" : 33540,
            "byteOffset" : 2486824
        }
    ],
    "buffers" : [
        {
            "byteLength" : 2520364,
            "uri" : "data:application/octet-stream;base64,"
        }
    ]
}
